<?xml version="1.0" encoding="UTF-8"?>
<svg xmlns="http://www.w3.org/2000/svg" viewBox="0 0 570.99 278.1">
  <defs>
    <style>
      .cls-1 {
        opacity: .4;
        stroke-linecap: round;
        stroke-linejoin: round;
        stroke-width: 16px;
      }

      .cls-1, .cls-2, .cls-3 {
        stroke: #fff;
      }

      .cls-1, .cls-2, .cls-4 {
        fill: #fff;
      }

      .cls-5 {
        fill: #000;
      }

      .cls-5, .cls-4 {
        stroke-width: 0px;
      }

      .cls-2 {
        stroke-width: 3px;
      }

      .cls-2, .cls-3, .cls-6 {
        stroke-miterlimit: 10;
      }

      .cls-3 {
        fill: none;
        opacity: .76;
        stroke-width: 2px;
      }

      .cls-6 {
        fill: #4af626;
        stroke: #4af626;
        stroke-width: 4px;
      }
    </style>
  </defs>
  <g id="Layer_5" data-name="Layer 5">
    <rect class="cls-5" width="570.99" height="278.2"/>
    <line class="cls-1" x1="358.11" y1="78.91" x2="358.11" y2="165.1"/>
    <line class="cls-1" x1="307.59" y1="78.86" x2="307.59" y2="165.14"/>
    <g>
      <path class="cls-2" d="M175.38,80.59l-45.92,78.4h39.52c3.33,0,6.4,1.79,6.4,6.4s-3.07,6.4-6.4,6.4h-56.79v-8.06l45.79-78.66h-39.39c-3.33,0-6.4-1.79-6.4-6.39s3.07-6.4,6.4-6.4h56.79v8.31Z"/>
      <path class="cls-2" d="M244.7,158.99h18.8c3.33,0,6.39,1.79,6.39,6.4s-3.07,6.4-6.39,6.4h-50.39c-3.33,0-6.39-1.79-6.39-6.4s3.07-6.4,6.39-6.4h18.8v-73.93h-18.8c-3.33,0-6.39-1.79-6.39-6.39s3.07-6.4,6.39-6.4h50.39c3.33,0,6.39,1.79,6.39,6.4s-3.07,6.39-6.39,6.39h-18.8v73.93Z"/>
      <path class="cls-6" d="M302.77,83.28c-.77-1.41-1.54-2.94-1.54-4.6,0-3.33,3.07-6.4,6.4-6.4s4.73,2.3,6.27,4.86l47.83,81.98c1.28,2.05,2.69,4.22,2.69,6.65,0,3.33-3.07,6.01-6.27,6.01s-4.73-1.79-6.27-4.48l-49.11-84.03Z"/>
      <path class="cls-2" d="M446.14,72.28c7.04,0,12.79,5.76,12.79,12.79v73.93c0,7.16-5.5,12.79-12.79,12.79h-37.6c-7.29,0-12.79-5.63-12.79-12.79v-73.93c0-7.03,5.75-12.79,12.79-12.79h37.6ZM446.14,158.99v-73.93h-37.6v73.93h37.6Z"/>
    </g>
    <g id="outlines_byline" data-name="outlines byline">
      <path class="cls-4" d="M113.26,199.73v6.49c0,.77-.16,1.53-1.12,1.53s-1.12-.77-1.12-1.53v-9.35c0-.81.09-1.65,1.12-1.65s1.12.84,1.12,1.63v.3l1.81-1.19c.58-.37,1.21-.74,1.93-.74h1.65c.86,0,1.4.23,2.07.81,1,.86.95,1.81,1,3.02l.23,7.02c.02.79-.09,1.67-1.09,1.67-.91,0-1.09-.77-1.12-1.51l-.23-6.88c-.05-1.37-.16-1.91-1.51-1.91h-.74c-.23,0-.47.07-.7.21l-3.3,2.07Z"/>
      <path class="cls-4" d="M132.02,207.75c-.93,0-1.3,0-2-.6l-.95-.84c-.88-.79-1.14-1.3-1.14-2.51v-4.3c0-1.19.16-1.88,1.09-2.67l.79-.67c1.05-.91,1.56-.93,2.46-.93h2.05c1.09,0,1.6.12,2.46.81l.91.72c1.02.81,1.16,1.67,1.16,2.91v1.79c0,1.28-.21,1.65-1.53,1.65h-7.16v.74c0,.21.16.49.33.65l.56.6c.3.33.74.42,1.49.42h4.79c.74,0,1.53.16,1.53,1.12s-.88,1.12-1.53,1.12h-5.3ZM130.16,200.87h6.46v-1.35c0-.42.02-.77-.28-1.05l-.86-.74c-.28-.26-.72-.28-1.07-.28h-1.88c-.42,0-.77,0-1.14.26l-.77.56c-.28.21-.47.37-.47,1.02v1.58Z"/>
      <path class="cls-4" d="M149.33,203.54c0,1.26-.05,1.98,1.49,1.98h1.14c.91,0,1.33-.07,1.56-.98.14-.54.56-.91,1.12-.91.63,0,1.14.49,1.14,1.12s-.4,1.42-.77,1.86c-.81.98-1.88,1.14-3.07,1.14h-1.14c-1.12,0-2.09-.26-2.88-1.12-.86-.95-.81-1.91-.81-3.12v-6.07h-.72c-.65,0-1.53-.14-1.53-1.12s.79-1.12,1.53-1.12h.72v-2.28c0-.77.16-1.53,1.12-1.53s1.12.77,1.12,1.53v2.28h3.74c.74,0,1.54.16,1.54,1.12s-.88,1.12-1.54,1.12h-3.74v6.09Z"/>
      <path class="cls-4" d="M168.32,202.59l1.21,2.07.7-2.07.23-5.77c.02-.77.16-1.6,1.12-1.6s1.12.84,1.09,1.6l-.23,6.21-1.09,3.3c-.23.67-.35,1.42-1.14,1.42h-.86c-.4,0-.72-.42-.93-.72l-1.21-1.81-1.21,1.81c-.21.3-.54.72-.93.72h-.86c-.79,0-.91-.74-1.14-1.42l-1.09-3.3-.23-6.21c-.02-.77.12-1.6,1.09-1.6s1.09.84,1.12,1.6l.23,5.77.7,2.07,1.21-2.07v-2.05c0-.77.16-1.56,1.12-1.56s1.12.79,1.12,1.56v2.05Z"/>
      <path class="cls-4" d="M178.65,199.38c0-1.49.3-2,1.42-2.91,1.09-.91,1.6-1.26,3.16-1.26h1.77c1.56,0,2.07.35,3.16,1.26,1.12.91,1.42,1.42,1.42,2.91v4.21c0,1.47-.37,2.02-1.53,3-1.16.98-1.63,1.16-3.05,1.16h-1.77c-1.42,0-1.88-.19-3.05-1.16-1.16-.98-1.54-1.53-1.54-3v-4.21ZM180.88,203.59c0,.47.16.77.81,1.33.49.42.84.6,1.54.6h1.77c.7,0,1.05-.19,1.53-.6.65-.56.81-.86.81-1.33v-4.21c0-.47-.16-.77-.81-1.33-.49-.42-.84-.6-1.53-.6h-1.77c-.7,0-1.05.19-1.54.6-.65.56-.81.86-.81,1.33v4.21Z"/>
      <path class="cls-4" d="M195.55,196.87c0-.81.09-1.65,1.12-1.65.88,0,1.12.74,1.12,1.49v.91l1.74-1.44c.63-.51,1.28-.95,1.98-.95h1.79c.86,0,1.58.28,2.19.88.74.74,1,1.51,1,2.53,0,.77-.14,1.56-1.09,1.56-.81,0-1.14-.65-1.14-1.37,0-.37,0-.65-.23-.98-.28-.4-.81-.4-1.35-.4h-.65c-.42,0-.72.21-1.12.54l-3.12,2.58v5.65c0,.77-.16,1.53-1.12,1.53s-1.12-.77-1.12-1.53v-9.35Z"/>
      <path class="cls-4" d="M219.81,196.12c.4-.35.95-.91,1.49-.91.63,0,1.12.51,1.12,1.14,0,.53-.35.79-.74,1.12l-4.33,3.58,5.26,4.37c.42.35.79.6.79,1.19,0,.63-.49,1.14-1.12,1.14-.44,0-.72-.28-1.05-.53l-5.6-4.67-.93.84v2.84c0,.77-.16,1.53-1.12,1.53s-1.12-.77-1.12-1.53v-14.07c0-.77.16-1.54,1.12-1.54s1.12.77,1.12,1.54v8.28l5.12-4.3Z"/>
      <path class="cls-4" d="M250.09,197.45c-.46,0-1.26-.09-1.26.63,0,.37.28.51.61.65l5.58,2.53c1.44.65,2.19,1.56,2.19,3.16,0,2.26-1.53,3.33-3.67,3.33h-3.44c-1.16,0-1.95-.05-2.79-.7-.42-.33-1.02-.74-1.02-1.3,0-.63.54-1.12,1.16-1.12.35,0,.6.12.86.4.4.44,1.09.49,1.79.49h3.02c.79,0,1.86.07,1.86-1.23,0-.54-.65-.88-1.16-1.12l-5.26-2.4c-1.23-.56-1.95-1.28-1.95-2.72,0-1.77,1.4-2.84,3.07-2.84h3.81c1.23,0,1.74.07,2.58.77.42.35.88.63.88,1.26s-.53,1.12-1.14,1.12c-.42,0-.67-.16-.95-.47-.37-.4-.77-.44-1.37-.44h-3.4Z"/>
      <path class="cls-4" d="M267.67,203.54c0,1.26-.05,1.98,1.49,1.98h1.14c.91,0,1.33-.07,1.56-.98.14-.54.56-.91,1.12-.91.63,0,1.14.49,1.14,1.12s-.39,1.42-.77,1.86c-.81.98-1.88,1.14-3.07,1.14h-1.14c-1.12,0-2.09-.26-2.88-1.12-.86-.95-.81-1.91-.81-3.12v-6.07h-.72c-.65,0-1.54-.14-1.54-1.12s.79-1.12,1.54-1.12h.72v-2.28c0-.77.16-1.53,1.12-1.53s1.12.77,1.12,1.53v2.28h3.74c.74,0,1.54.16,1.54,1.12s-.88,1.12-1.54,1.12h-3.74v6.09Z"/>
      <path class="cls-4" d="M283.83,197.45c-.65,0-1.53-.14-1.53-1.12s.79-1.12,1.53-1.12h3.07c1.16,0,2,.12,2.88,1,.86.86.98,1.53,1,2.65l.23,7.58c.02.65-.3,1.3-1.05,1.3-.58,0-1.16-.49-1.14-1.12l-1.54.79c-.63.33-.65.33-1.37.33h-2.14c-1,0-1.72-.12-2.54-.79-.93-.77-1.16-1.58-1.16-2.74v-.98c0-1.07.26-1.74,1.09-2.49.77-.67,1.63-.84,2.6-.84h4.79v-.51c0-1.67-.37-1.95-1.98-1.95h-2.77ZM283.8,202.15c-.6,0-1.49.16-1.49.98v1.49c0,.74.91.91,1.44.91h2.46l2.46-1.28v-.49c0-1.23-.35-1.6-1.58-1.6h-3.3Z"/>
      <path class="cls-4" d="M301.48,203.54c0,1.26-.05,1.98,1.49,1.98h1.14c.91,0,1.33-.07,1.56-.98.14-.54.56-.91,1.12-.91.63,0,1.14.49,1.14,1.12s-.4,1.42-.77,1.86c-.81.98-1.88,1.14-3.07,1.14h-1.14c-1.12,0-2.09-.26-2.88-1.12-.86-.95-.81-1.91-.81-3.12v-6.07h-.72c-.65,0-1.54-.14-1.54-1.12s.79-1.12,1.54-1.12h.72v-2.28c0-.77.16-1.53,1.12-1.53s1.12.77,1.12,1.53v2.28h3.74c.74,0,1.54.16,1.54,1.12s-.88,1.12-1.54,1.12h-3.74v6.09Z"/>
      <path class="cls-4" d="M317.99,207.75c-.93,0-1.3,0-2-.6l-.95-.84c-.88-.79-1.14-1.3-1.14-2.51v-4.3c0-1.19.16-1.88,1.09-2.67l.79-.67c1.05-.91,1.56-.93,2.46-.93h2.05c1.09,0,1.61.12,2.46.81l.91.72c1.02.81,1.16,1.67,1.16,2.91v1.79c0,1.28-.21,1.65-1.54,1.65h-7.16v.74c0,.21.16.49.33.65l.56.6c.3.33.74.42,1.49.42h4.79c.74,0,1.54.16,1.54,1.12s-.88,1.12-1.54,1.12h-5.3ZM316.13,200.87h6.46v-1.35c0-.42.02-.77-.28-1.05l-.86-.74c-.28-.26-.72-.28-1.07-.28h-1.88c-.42,0-.77,0-1.14.26l-.77.56c-.28.21-.46.37-.46,1.02v1.58Z"/>
      <path class="cls-4" d="M354.29,198.96v7.26c0,.77-.16,1.53-1.12,1.53s-1.12-.77-1.12-1.53v-7.46c0-.37.05-1.07-.54-1.07-.26,0-.42.21-.6.37l-.98.91v7.26c0,.77-.16,1.53-1.12,1.53s-1.12-.77-1.12-1.53v-9.42c0-.79.21-1.58,1.16-1.58.56,0,.93.37,1.07.88l.19-.14c.58-.44.93-.74,1.7-.74.86,0,1.54.42,2.05,1.12l.19-.19c.7-.7.98-.93,1.95-.93.74,0,1.42.33,1.86.91.56.72.51,1.37.54,2.23l.23,7.72c.02.79-.09,1.67-1.09,1.67-.91,0-1.09-.77-1.12-1.51l-.23-7.37c-.02-.4.09-1.19-.51-1.19-.33,0-.74.56-.93.77l-.46.51Z"/>
      <path class="cls-4" d="M364.61,199.38c0-1.49.3-2,1.42-2.91,1.09-.91,1.6-1.26,3.16-1.26h1.77c1.56,0,2.07.35,3.16,1.26,1.12.91,1.42,1.42,1.42,2.91v4.21c0,1.47-.37,2.02-1.53,3-1.16.98-1.63,1.16-3.05,1.16h-1.77c-1.42,0-1.88-.19-3.05-1.16-1.16-.98-1.53-1.53-1.53-3v-4.21ZM366.85,203.59c0,.47.16.77.81,1.33.49.42.84.6,1.54.6h1.77c.7,0,1.05-.19,1.54-.6.65-.56.81-.86.81-1.33v-4.21c0-.47-.16-.77-.81-1.33-.49-.42-.84-.6-1.54-.6h-1.77c-.7,0-1.05.19-1.54.6-.65.56-.81.86-.81,1.33v4.21Z"/>
      <path class="cls-4" d="M383.75,199.73v6.49c0,.77-.16,1.53-1.12,1.53s-1.12-.77-1.12-1.53v-9.35c0-.81.09-1.65,1.12-1.65s1.12.84,1.12,1.63v.3l1.81-1.19c.58-.37,1.21-.74,1.93-.74h1.65c.86,0,1.4.23,2.07.81,1,.86.95,1.81,1,3.02l.23,7.02c.02.79-.09,1.67-1.09,1.67-.91,0-1.09-.77-1.12-1.51l-.23-6.88c-.05-1.37-.16-1.91-1.51-1.91h-.74c-.23,0-.46.07-.7.21l-3.3,2.07Z"/>
      <path class="cls-4" d="M405.05,205.52h1.67c.74,0,1.53.16,1.53,1.12s-.88,1.12-1.53,1.12h-5.67c-.65,0-1.54-.14-1.54-1.12s.79-1.12,1.54-1.12h1.77v-8.07h-1.77c-.65,0-1.54-.14-1.54-1.12s.79-1.12,1.54-1.12h2.35c1.28,0,1.65.23,1.65,1.56v8.74ZM401.68,190.7c0-.79.44-1.05,1.05-1.05h1.28c.6,0,1.05.26,1.05,1.05v1.07c0,.79-.44,1.05-1.05,1.05h-1.28c-.6,0-1.05-.26-1.05-1.05v-1.07Z"/>
      <path class="cls-4" d="M419.82,203.54c0,1.26-.05,1.98,1.49,1.98h1.14c.91,0,1.33-.07,1.56-.98.14-.54.56-.91,1.12-.91.63,0,1.14.49,1.14,1.12s-.4,1.42-.77,1.86c-.81.98-1.88,1.14-3.07,1.14h-1.14c-1.12,0-2.09-.26-2.88-1.12-.86-.95-.81-1.91-.81-3.12v-6.07h-.72c-.65,0-1.54-.14-1.54-1.12s.79-1.12,1.54-1.12h.72v-2.28c0-.77.16-1.53,1.12-1.53s1.12.77,1.12,1.53v2.28h3.74c.74,0,1.54.16,1.54,1.12s-.88,1.12-1.54,1.12h-3.74v6.09Z"/>
      <path class="cls-4" d="M432.24,199.38c0-1.49.3-2,1.42-2.91,1.09-.91,1.6-1.26,3.16-1.26h1.77c1.56,0,2.07.35,3.16,1.26,1.12.91,1.42,1.42,1.42,2.91v4.21c0,1.47-.37,2.02-1.54,3-1.16.98-1.63,1.16-3.05,1.16h-1.77c-1.42,0-1.88-.19-3.05-1.16-1.16-.98-1.53-1.53-1.53-3v-4.21ZM434.47,203.59c0,.47.16.77.81,1.33.49.42.84.6,1.53.6h1.77c.7,0,1.05-.19,1.54-.6.65-.56.81-.86.81-1.33v-4.21c0-.47-.16-.77-.81-1.33-.49-.42-.84-.6-1.54-.6h-1.77c-.7,0-1.05.19-1.53.6-.65.56-.81.86-.81,1.33v4.21Z"/>
      <path class="cls-4" d="M449.14,196.87c0-.81.09-1.65,1.12-1.65.88,0,1.12.74,1.12,1.49v.91l1.74-1.44c.63-.51,1.28-.95,1.98-.95h1.79c.86,0,1.58.28,2.19.88.74.74,1,1.51,1,2.53,0,.77-.14,1.56-1.09,1.56-.81,0-1.14-.65-1.14-1.37,0-.37,0-.65-.23-.98-.28-.4-.81-.4-1.35-.4h-.65c-.42,0-.72.21-1.12.54l-3.12,2.58v5.65c0,.77-.16,1.53-1.12,1.53s-1.12-.77-1.12-1.53v-9.35Z"/>
    </g>
  </g>
  <g id="Layer_4" data-name="Layer 4">
    <path class="cls-3" d="M99.94,122.03h-28.24v79.43h28.24"/>
    <path class="cls-3" d="M471.01,201.46h28.24c0-26.48,0-52.95,0-79.43-9.41,0-18.82,0-28.24,0"/>
  </g>
</svg>
